<?xml version="1.0" encoding="UTF-8" standalone="no"?>
<!DOCTYPE svg PUBLIC "-//W3C//DTD SVG 1.1//EN" "http://www.w3.org/Graphics/SVG/1.1/DTD/svg11.dtd">
<svg width="100%" height="100%" viewBox="0 0 350 350" version="1.1" xmlns="http://www.w3.org/2000/svg" xmlns:xlink="http://www.w3.org/1999/xlink" xml:space="preserve" xmlns:serif="http://www.serif.com/" style="fill-rule:evenodd;clip-rule:evenodd;stroke-linejoin:round;stroke-miterlimit:2;">
    <g id="Artboard1" transform="matrix(1,0,0,1,-43.4411,1.42109e-13)">
        <rect x="43.441" y="-0" width="350" height="349.998" style="fill:none;"/>
        <clipPath id="_clip1">
            <rect x="43.441" y="-0" width="350" height="349.998"/>
        </clipPath>
        <g clip-path="url(#_clip1)">
            <g transform="matrix(0.808314,0,0,0.80831,-209.561,-143.071)">
                <g>
                    <path d="M746,189.99C746,182.821 740.179,177 733.01,177L325.99,177C318.821,177 313,182.821 313,189.99L313,597.01C313,604.179 318.821,610 325.99,610L733.01,610C740.179,610 746,604.179 746,597.01L746,189.99Z" style="fill:none;"/>
                    <g>
                        <clipPath id="_clip2">
                            <path d="M746,189.99C746,182.821 740.179,177 733.01,177L325.99,177C318.821,177 313,182.821 313,189.99L313,597.01C313,604.179 318.821,610 325.99,610L733.01,610C740.179,610 746,604.179 746,597.01L746,189.99Z"/>
                        </clipPath>
                        <g clip-path="url(#_clip2)">
                            <path d="M746,189.99C746,182.821 740.179,177 733.01,177L325.99,177C318.821,177 313,182.821 313,189.99L313,597.01C313,604.179 318.821,610 325.99,610L733.01,610C740.179,610 746,604.179 746,597.01L746,189.99Z" style="fill:rgb(201,40,77);"/>
                            <path d="M746,189.99C746,182.821 740.179,177 733.01,177L490.53,177L313,484.491L313,597.01C313,604.179 318.821,610 325.99,610L733.01,610C740.179,610 746,604.179 746,597.01L746,189.99Z" style="fill:rgb(189,22,61);"/>
                            <g transform="matrix(0.433,0,0,0.433,313,177)">
                                <path d="M462.35,1000L0,1000L0.004,727.461L152.504,463.324L462.35,1000ZM677.35,1000L477.35,1000C379.585,830.883 284.282,666.287 186.91,496.943C170.672,468.444 170.366,432.489 187.085,403.385L260.007,277.128L677.35,1000ZM892.35,1000L692.35,1000L267.507,264.138L367.504,90.933L892.35,1000ZM907.35,1000L375.004,77.942L420.004,0L530,0L1000,813.545L1000,1000L907.35,1000ZM1000,0L1000,788.083L545,0L1000,0Z" style="fill:rgb(141,16,45);"/>
                            </g>
                            <g transform="matrix(0.433,0,0,0.433,313,177)">
                                <path d="M152.5,489.304L447.35,1000L0,1000L0,753.442L152.5,489.304ZM1000,1000L922.35,1000L390,77.942L435,0L515,0L1000,840.045L1000,1000ZM877.35,1000L707.35,1000L285,259.808L367.5,116.913L877.35,1000ZM662.35,1000L492.35,1000C492.35,1000 272.131,618.436 198.353,490.781C183.885,465.749 183.881,434.898 198.341,409.862C225.018,363.674 260.004,303.099 260.004,303.099L662.35,1000ZM560,0L1000,0L1000,762.102L560,0Z" style="fill:url(#_Radial3);"/>
                            </g>
                            <g transform="matrix(0.433,0,0,0.433,313,177)">
                                <path d="M897.319,1034.59L727.223,1034.83L285,259.808L367.5,116.913L897.319,1034.59ZM682.163,1034.32L511.774,1033.64L501.333,1015.55L473.177,966.772L432.059,895.537L408.124,854.073L382.73,810.083L356.472,764.597L329.943,718.644L303.738,673.255L278.45,629.458L254.674,588.282L243.538,568.999L233.003,550.758L223.142,533.687L214.031,517.914L205.743,503.57L198.353,490.781L198.184,490.487L197.85,489.899L197.685,489.603L197.522,489.308L197.36,489.011L197.199,488.715L197.039,488.418L196.881,488.12L196.724,487.822L196.568,487.523L196.414,487.224L196.261,486.924L196.109,486.624L195.959,486.323L195.81,486.022L195.662,485.721L195.516,485.419L195.371,485.116L195.227,484.813L195.085,484.51L194.943,484.206L194.804,483.902L194.665,483.597L194.528,483.292L194.392,482.986L194.258,482.68L194.125,482.374L193.993,482.067L193.862,481.76L193.733,481.452L193.606,481.144L193.479,480.835L193.354,480.527L193.23,480.217L193.107,479.908L192.986,479.598L192.866,479.287L192.748,478.977L192.631,478.665L192.515,478.354L192.4,478.042L192.287,477.73L192.175,477.417L192.064,477.104L191.955,476.791L191.847,476.477L191.74,476.163L191.635,475.849L191.531,475.535L191.428,475.22L191.327,474.904L191.227,474.589L191.128,474.273L191.031,473.957L190.935,473.64L190.84,473.323L190.747,473.006L190.655,472.689L190.564,472.371L190.474,472.053L190.386,471.735L190.299,471.417L190.214,471.098L190.13,470.779L190.047,470.459L189.966,470.14L189.885,469.82L189.729,469.18L189.653,468.859L189.578,468.538L189.504,468.217L189.432,467.896L189.361,467.574L189.292,467.253L189.224,466.931L189.157,466.609L189.091,466.286L189.027,465.964L188.964,465.641L188.902,465.318L188.842,464.995L188.783,464.672L188.725,464.348L188.669,464.024L188.614,463.701L188.56,463.377L188.508,463.052L188.457,462.728L188.407,462.403L188.359,462.079L188.312,461.754L188.266,461.429L188.178,460.779L188.137,460.453L188.096,460.128L188.057,459.802L188.019,459.476L187.983,459.15L187.948,458.824L187.914,458.498L187.881,458.172L187.85,457.846L187.82,457.519L187.792,457.193L187.765,456.866L187.739,456.54L187.714,456.213L187.691,455.886L187.669,455.559L187.629,454.905L187.595,454.251L187.58,453.924L187.566,453.597L187.553,453.27L187.542,452.942L187.532,452.615L187.523,452.288L187.516,451.96L187.51,451.633L187.505,451.305L187.502,450.978L187.5,450.65L187.499,450.323L187.5,449.996L187.502,449.668L187.505,449.341L187.509,449.013L187.515,448.686L187.523,448.358L187.531,448.031L187.541,447.704L187.552,447.376L187.565,447.049L187.579,446.722L187.594,446.395L187.61,446.068L187.628,445.741L187.647,445.414L187.668,445.087L187.69,444.76L187.713,444.433L187.737,444.106L187.763,443.779L187.79,443.453L187.818,443.126L187.848,442.8L187.879,442.474L187.912,442.147L187.945,441.821L187.98,441.495L188.017,441.17L188.054,440.844L188.093,440.518L188.134,440.193L188.175,439.867L188.218,439.542L188.308,438.892L188.355,438.567L188.404,438.242L188.453,437.918L188.504,437.593L188.556,437.269L188.61,436.945L188.665,436.621L188.721,436.298L188.779,435.974L188.838,435.651L188.898,435.328L188.959,435.005L189.022,434.682L189.086,434.359L189.152,434.037L189.219,433.715L189.287,433.393L189.356,433.071L189.427,432.75L189.499,432.428L189.573,432.107L189.648,431.786L189.724,431.466L189.801,431.145L189.88,430.825L189.96,430.506L190.041,430.186L190.124,429.867L190.208,429.548L190.293,429.229L190.38,428.91L190.468,428.592L190.557,428.274L190.648,427.956L190.74,427.639L190.833,427.322L190.928,427.005L191.024,426.688L191.121,426.372L191.22,426.056L191.32,425.741L191.421,425.425L191.524,425.11L191.628,424.796L191.733,424.481L191.839,424.167L191.947,423.854L192.056,423.54L192.167,423.227L192.279,422.915L192.392,422.603L192.506,422.291L192.622,421.979L192.739,421.668L192.858,421.357L192.978,421.047L193.099,420.737L193.221,420.427L193.345,420.118L193.47,419.809L193.597,419.5L193.724,419.192L193.853,418.885L193.984,418.577L194.115,418.27L194.248,417.964L194.518,417.352L194.655,417.047L194.794,416.742L194.933,416.438L195.074,416.134L195.36,415.528L195.505,415.225L195.652,414.923L195.799,414.622L195.948,414.32L196.098,414.02L196.25,413.72L196.403,413.42L196.557,413.121L196.713,412.822L196.87,412.524L197.028,412.226L197.187,411.929L197.348,411.632L197.51,411.336L197.674,411.04L197.839,410.745L198.005,410.45L198.172,410.156L198.341,409.862L260.004,303.099L682.163,1034.32ZM466.714,1033.54L-35.729,1032.35L-24.756,796.321L152.5,489.304L466.714,1033.54ZM1022.52,879.047L1026.74,1032.35L941.419,1033.03L390,77.942L456.639,-37.48L493.351,-37.497L1022.52,879.047ZM298.836,259.843L734.186,1022.82L876.551,1022.62L367.5,140.913L298.836,259.843ZM208.74,415.851L208.589,416.113L208.446,416.364L208.306,416.613L208.163,416.869L208.024,417.12L207.887,417.371L207.75,417.623L207.612,417.88L207.477,418.134L207.345,418.385L207.213,418.64L207.082,418.894L206.952,419.149L206.821,419.408L206.693,419.664L206.568,419.916L206.441,420.177L206.316,420.434L206.193,420.691L206.071,420.948L205.95,421.207L205.829,421.468L205.712,421.722L205.594,421.982L205.476,422.244L205.359,422.507L205.246,422.766L205.133,423.026L205.021,423.286L204.91,423.548L204.799,423.812L204.691,424.073L204.583,424.338L204.477,424.599L204.372,424.862L204.267,425.127L204.164,425.389L204.062,425.656L203.96,425.921L203.861,426.185L203.763,426.449L203.666,426.712L203.57,426.979L203.474,427.247L203.38,427.512L203.287,427.781L203.194,428.049L203.104,428.314L203.015,428.582L202.926,428.851L202.839,429.118L202.753,429.386L202.667,429.656L202.584,429.923L202.501,430.193L202.419,430.463L202.338,430.733L202.259,431.004L202.181,431.271L202.104,431.543L202.027,431.814L201.953,432.084L201.878,432.357L201.806,432.628L201.735,432.898L201.664,433.173L201.594,433.445L201.527,433.715L201.46,433.987L201.394,434.26L201.329,434.534L201.265,434.808L201.202,435.081L201.141,435.353L201.081,435.627L201.022,435.903L200.963,436.177L200.907,436.45L200.851,436.726L200.796,437L200.743,437.273L200.639,437.825L200.589,438.099L200.54,438.377L200.492,438.651L200.445,438.926L200.399,439.205L200.355,439.478L200.269,440.032L200.229,440.306L200.189,440.585L200.149,440.862L200.112,441.139L200.075,441.415L200.04,441.692L200.005,441.97L199.972,442.247L199.94,442.525L199.909,442.802L199.879,443.081L199.851,443.357L199.823,443.634L199.796,443.914L199.771,444.193L199.747,444.47L199.724,444.748L199.702,445.024L199.681,445.303L199.661,445.584L199.643,445.861L199.625,446.139L199.609,446.418L199.594,446.696L199.58,446.975L199.567,447.254L199.555,447.534L199.544,447.812L199.535,448.089L199.526,448.369L199.519,448.648L199.513,448.928L199.508,449.206L199.504,449.485L199.501,449.763L199.5,450.041L199.499,450.322L199.501,450.878L199.504,451.159L199.508,451.437L199.513,451.715L199.52,451.994L199.527,452.274L199.535,452.553L199.545,452.831L199.556,453.109L199.568,453.389L199.581,453.668L199.595,453.945L199.61,454.224L199.627,454.504L199.644,454.781L199.663,455.06L199.683,455.339L199.703,455.617L199.725,455.894L199.749,456.172L199.773,456.451L199.798,456.73L199.825,457.008L199.852,457.284L199.881,457.562L199.911,457.84L199.942,458.119L199.974,458.395L200.042,458.949L200.078,459.228L200.115,459.505L200.152,459.78L200.191,460.057L200.231,460.333L200.273,460.611L200.315,460.888L200.358,461.163L200.403,461.439L200.495,461.991L200.544,462.268L200.593,462.544L200.642,462.816L200.694,463.092L200.747,463.369L200.8,463.642L200.855,463.917L200.911,464.192L200.968,464.465L201.026,464.742L201.085,465.014L201.145,465.287L201.207,465.561L201.269,465.833L201.334,466.109L201.398,466.382L201.464,466.653L201.531,466.925L201.6,467.199L201.669,467.472L201.739,467.742L201.811,468.014L201.884,468.285L201.958,468.556L202.033,468.828L202.109,469.099L202.186,469.369L202.264,469.638L202.344,469.909L202.425,470.178L202.507,470.449L202.59,470.719L202.673,470.986L202.758,471.254L202.845,471.524L202.932,471.791L203.021,472.06L203.111,472.328L203.201,472.593L203.294,472.862L203.387,473.13L203.48,473.394L203.575,473.66L203.672,473.926L203.77,474.193L203.868,474.457L203.968,474.723L204.069,474.986L204.171,475.249L204.275,475.515L204.379,475.78L204.484,476.042L204.59,476.304L204.699,476.569L204.917,477.091L205.029,477.355L205.141,477.615L205.253,477.874L205.37,478.138L205.485,478.398L205.601,478.657L205.718,478.915L205.837,479.173L205.957,479.431L206.08,479.693L206.202,479.951L206.325,480.207L206.45,480.464L206.575,480.72L206.704,480.98L206.832,481.237L206.959,481.489L207.089,481.743L207.222,482.001L207.355,482.256L207.487,482.507L207.622,482.761L207.76,483.018L207.895,483.267L208.173,483.771L208.314,484.024L208.456,484.276L208.599,484.526L208.75,484.79L216.133,497.566L224.422,511.912L233.533,527.685L243.394,544.757L253.929,562.998L265.065,582.281L288.842,623.457L314.13,667.255L340.336,712.645L366.865,758.597L393.123,804.083L418.516,848.073L442.452,889.538L483.57,960.774L511.726,1009.55L518.719,1021.67L661.331,1022.24L260.002,327.096L208.74,415.851ZM-12.904,799.793L-23.159,1020.38L445.901,1021.49L152.5,513.304L-12.904,799.793ZM463.569,-25.483L403.856,77.942L948.315,1020.97L1014.41,1020.44L1010.61,882.415L486.425,-25.493L463.569,-25.483ZM1029.25,812.764L538.405,-37.404L1022.35,-38.712L1029.25,812.764ZM559.157,-25.46L1016.88,767.342L1010.45,-26.68L559.157,-25.46Z" style="fill:url(#_Linear4);"/>
                            </g>
                        </g>
                    </g>
                </g>
            </g>
        </g>
    </g>
    <defs>
        <radialGradient id="_Radial3" cx="0" cy="0" r="1" gradientUnits="userSpaceOnUse" gradientTransform="matrix(1187.94,0,0,1187.94,764.244,-187.941)"><stop offset="0" style="stop-color:rgb(255,174,113);stop-opacity:1"/><stop offset="1" style="stop-color:rgb(255,147,80);stop-opacity:1"/></radialGradient>
        <linearGradient id="_Linear4" x1="0" y1="0" x2="1" y2="0" gradientUnits="userSpaceOnUse" gradientTransform="matrix(6.12323e-14,1000,-1000,6.12323e-14,1892.5,0)"><stop offset="0" style="stop-color:rgb(255,188,143);stop-opacity:1"/><stop offset="1" style="stop-color:rgb(255,161,107);stop-opacity:1"/></linearGradient>
    </defs>
</svg>
