<?xml version="1.0" encoding="UTF-8" standalone="no"?>
<!DOCTYPE svg PUBLIC "-//W3C//DTD SVG 1.1//EN" "http://www.w3.org/Graphics/SVG/1.1/DTD/svg11.dtd">
<svg width="100%" height="100%" viewBox="0 0 1771 2009" version="1.1" xmlns="http://www.w3.org/2000/svg" xmlns:xlink="http://www.w3.org/1999/xlink" xml:space="preserve" xmlns:serif="http://www.serif.com/" style="fill-rule:evenodd;clip-rule:evenodd;stroke-linejoin:round;stroke-miterlimit:2;">
    <g id="Artboard1" transform="matrix(1,0,0,1,0,-491.4)">
        <rect x="0" y="491.4" width="1771" height="2008.4" style="fill:none;"/>
        <clipPath id="_clip1">
            <rect x="0" y="491.4" width="1771" height="2008.4"/>
        </clipPath>
        <g clip-path="url(#_clip1)">
            <g transform="matrix(1,0,0,1,0,0.4)">
                <path d="M161.2,2299.1L0,491.4L1771,491.4L1609.6,2298.8L884.4,2499.8L161.2,2299.1Z" style="fill:rgb(21,114,182);fill-rule:nonzero;"/>
            </g>
            <g transform="matrix(1,0,0,1,0,0.4)">
                <path d="M885.5,2346.2L1471.5,2183.7L1609.3,639.2L885.5,639.2L885.5,2346.2Z" style="fill:rgb(51,169,220);fill-rule:nonzero;"/>
            </g>
            <g transform="matrix(1,0,0,1,0,0.4)">
                <path d="M885.5,1294.1L1178.9,1294.1L1199.1,1067.1L885.5,1067.1L885.5,845.5L1441.5,845.5L1436.2,905L1381.7,1516L885.5,1516L885.5,1294.1Z" style="fill:white;fill-rule:nonzero;"/>
            </g>
            <g transform="matrix(1,0,0,1,0,0.4)">
                <path d="M887.2,1869.9L885.7,1869.9L638.8,1803.2L623,1626.4L400.6,1626.4L431.7,1974.5L885.9,2100.9L887.2,2100.9L887.2,1869.9Z" style="fill:rgb(235,235,235);fill-rule:nonzero;"/>
            </g>
            <g transform="matrix(1,0,0,1,0,0.4)">
                <path d="M1160.1,1506.3L1133.4,1803L886.1,1869.7L886.1,2100.7L1340.6,1974.7L1343.9,1937.2L1382.5,1506.2L1160.1,1506.2L1160.1,1506.3Z" style="fill:white;fill-rule:nonzero;"/>
            </g>
            <g transform="matrix(1,0,0,1,0,0.4)">
                <path d="M886.3,845.5L886.3,1067.2L350.9,1067.2L346.3,1017.4L336.2,905L330.9,845.5L886.3,845.5ZM885.5,1294.1L885.5,1515.8L641.4,1515.8L637.1,1466L627,1353.6L621.7,1294.1L885.5,1294.1Z" style="fill:rgb(235,235,235);fill-rule:nonzero;"/>
            </g>
        </g>
    </g>
</svg>
