<?xml version="1.0" encoding="UTF-8" standalone="no"?>
<!DOCTYPE svg PUBLIC "-//W3C//DTD SVG 1.1//EN" "http://www.w3.org/Graphics/SVG/1.1/DTD/svg11.dtd">
<svg width="100%" height="100%" viewBox="0 0 350 290" version="1.1" xmlns="http://www.w3.org/2000/svg" xmlns:xlink="http://www.w3.org/1999/xlink" xml:space="preserve" xmlns:serif="http://www.serif.com/" style="fill-rule:evenodd;clip-rule:evenodd;stroke-linejoin:round;stroke-miterlimit:2;">
    <g id="Artboard1" transform="matrix(0.23225,0,0,0.192435,0,81.0153)">
        <rect x="0" y="-421" width="1507" height="1507" style="fill:none;"/>
        <g transform="matrix(0.754828,0,0,0.910999,-376.218,564.68)">
            <path d="M2390.38,42.187L2494.9,42.762C2494.9,42.762 2300.58,306.069 2284.72,327.529C2279.56,334.477 2271.74,341.971 2267.77,351.262C2257.73,374.614 2247.42,425.842 2247.42,425.842L2151.79,426.32C2151.79,426.32 2166.68,372.921 2166.06,344.479C2165.53,319.634 2152.84,294.818 2145.72,269.899C2138.53,244.673 2128.77,195.314 2128.77,195.314L2227.09,195.314L2240.65,249.557L2390.38,42.187" style="fill:rgb(26,25,24);"/>
            <path d="M2192.47,97.718C2211.76,109.345 2223.6,173.489 2223.6,173.489C2223.6,173.489 2122.67,174.977 2067.75,174.977L2020.29,174.977L1962.66,425.842L1874.52,425.842C1874.52,425.842 1929.37,153.215 1942.32,103.788C1946.52,87.784 1971.07,90.531 2012.53,90.531L2078.74,90.531C2121.49,90.531 2171.46,85.071 2192.47,97.718M1782.14,219.896C1782.14,219.896 1784.88,203.794 1772.82,185.145C1762.51,169.249 1752.99,165.55 1725.86,164.701C1649.28,162.296 1650.77,219.047 1650.77,219.047L1782.14,219.896ZM1865.19,154.903C1876.42,195.387 1855.03,290.509 1855.03,290.509C1855.03,290.509 1743.32,288.645 1682.13,290.509C1663.11,291.09 1640.34,288.44 1634.67,297.292C1626.7,309.695 1637.58,328.787 1646.81,336.853C1657.42,346.138 1678.09,347.197 1685.52,348.139C1735.18,354.448 1839.12,349.768 1839.12,349.768L1821.12,429.496C1821.12,429.496 1674.24,436.864 1600.77,419.328C1586.26,415.873 1572.66,408.891 1563.48,398.991C1560.97,396.283 1558.79,392.589 1556.42,389.398C1554.53,386.851 1549,378.483 1546.53,371.867C1529.75,327.153 1548.49,241.492 1566.87,195.587C1569,190.269 1571.68,183.521 1574.5,177.787C1578.02,170.639 1581,162.569 1583.82,158.295C1585.71,155.347 1588.06,153.449 1590.03,150.668C1592.29,147.38 1594.93,144.193 1597.38,141.349C1604.16,133.483 1611.86,127.921 1621.11,121.012C1651.72,98.089 1707.11,80.294 1773.66,87.105C1798.72,89.682 1836.56,98.63 1855.03,124.398C1859.97,131.278 1862.42,144.94 1865.19,154.908L1865.19,154.903ZM1460.93,90.218L1546.39,89.716C1546.39,89.716 1498.76,315.662 1474.49,425.842L1376.17,425.842C1307.46,425.842 1246.27,434.351 1220.23,385.158C1194.98,337.395 1219.08,258.847 1230.4,205.482C1238.4,167.717 1255.26,90.526 1255.26,90.526L1343.81,89.716C1343.81,89.716 1318.78,209.893 1308.37,269.899C1304.64,291.392 1296.95,311.632 1304.99,327.524C1312.61,342.65 1323.29,343.733 1355.83,344.479C1366.14,344.723 1399.91,344.479 1399.91,344.479L1460.93,90.218M1060.9,252.943C1069.85,221.15 1082.9,186.673 1081.24,158.021C1079.44,127.379 1053.75,99.479 1037.17,93.614C987.234,75.986 940.486,100.631 921.905,120.734C897.87,146.77 889.731,177.182 881.222,219.052C874.888,250.133 869.697,282.946 881.222,307.187C901.627,350.042 965.263,340.683 1033.78,341.093C1043.95,313.837 1052.35,283.224 1060.9,252.943ZM1179.55,127.516C1189.31,198.5 1151.86,276.852 1126.06,344.987C1152.37,347.363 1175.42,344.621 1177.08,346.582C1178.81,349.124 1159.44,427.911 1152.7,428.116C1131.82,428.657 1062.63,429.233 1033.78,429.233C939.632,429.233 851.56,435.366 806.646,388.554C788.407,369.535 775.794,336.916 772.74,313.969C767.656,275.662 774.028,233.485 782.913,198.71C790.95,167.312 801.25,137.684 816.815,110.56C856.376,41.508 925.194,-9.749 1040.56,2.083C1062.93,4.387 1095.07,14.184 1115.14,25.812C1116.53,26.626 1121.38,30.491 1122.49,31.169C1149.62,48.427 1174.33,89.613 1179.55,127.516ZM763.011,90.628C757.317,116.562 751.622,145.96 745.621,171.586L650.699,171.586C658.052,143.178 663.683,114.937 671.041,90.223C701.414,90.223 729.656,90.628 763.016,90.628M647.308,195.319L738.843,195.319C726.874,261.56 703.176,368.412 684.6,442.793C672.973,489.341 665.21,523.306 633.748,547.883C630.933,550.089 629.308,549.04 626.966,551.274C621.169,556.802 594.352,563.214 579.51,564.834C555.372,567.449 528.082,565.175 498.415,564.565C506.178,536.192 514.961,502.12 521.88,476.689C594.191,485.443 596.021,417.093 610.02,351.262C618.12,313.222 642.667,210.572 647.308,195.319" style="fill:rgb(26,25,24);"/>
        </g>
        <g transform="matrix(1.71945,0,0,2.0752,366.98,-516.352)">
            <path d="M433.73,368.212L431.769,373.297C398.346,438.387 339.116,478.319 254.635,480.08C215.142,480.895 177.513,470.761 152.931,459.743C99.883,435.908 55.262,391.706 30.895,344.479C-4.061,276.779 -10.365,182.603 62.317,112.263C63.44,112.263 53.5,127.516 54.623,127.516L52.622,134.025C0.248,297.999 161.611,438.523 318.471,422.451C356.169,418.586 404.24,397.942 433.73,368.212" style="fill:rgb(33,96,155);"/>
            <path d="M338.808,300.409C378.272,300.678 419.493,282.234 443.904,256.339C422.547,310.549 360.712,345.392 277.793,334.311C208.36,325.021 142.221,255.154 135.409,185.145C130.428,134.196 148.183,103.788 177.445,66.9C167.276,86.193 163.475,101.07 162.529,110.56C151.414,220.774 250.571,299.829 338.808,300.409" style="fill:rgb(33,96,155);"/>
            <path d="M439.937,163.515C433.804,177.587 398.482,204.16 382.883,207.483C321.116,220.642 281.559,191.352 260.837,158.021C257.758,153.044 252.064,139.451 251.044,135.991C243.008,108.667 246.702,67.339 270.674,45.948C263.452,66.29 262.398,89.916 266.199,105.276C268.502,114.561 275.519,130.775 282.54,140.973C295.314,159.549 303.419,164.062 319.828,173.928C327.22,178.368 335.149,181.93 338.574,182.906C354.134,187.488 386.987,199.554 439.942,163.515" style="fill:rgb(33,96,155);"/>
        </g>
    </g>
</svg>
