<?xml version="1.0" encoding="UTF-8" standalone="no"?>
<!DOCTYPE svg PUBLIC "-//W3C//DTD SVG 1.1//EN" "http://www.w3.org/Graphics/SVG/1.1/DTD/svg11.dtd">
<svg width="100%" height="100%" viewBox="0 0 700 397" version="1.1" xmlns="http://www.w3.org/2000/svg" xmlns:xlink="http://www.w3.org/1999/xlink" xml:space="preserve" xmlns:serif="http://www.serif.com/" style="fill-rule:evenodd;clip-rule:evenodd;stroke-linejoin:round;stroke-miterlimit:2;">
    <g id="Artboard1" transform="matrix(0.615655,0,0,0.349164,-244.392,129.191)">
        <rect x="396.963" y="-370" width="1137" height="1137" style="fill:none;"/>
        <clipPath id="_clip1">
            <rect x="396.963" y="-370" width="1137" height="1137"/>
        </clipPath>
        <g clip-path="url(#_clip1)">
            <g transform="matrix(0.578343,0,0,1.01975,394.535,-371.905)">
                <path d="M1327.25,1.87C1325.4,1.871 1323.58,2.354 1321.98,3.271C1318.73,5.169 1316.73,8.649 1316.71,12.407L1316.71,281.164C1316.71,283.801 1315.48,286.164 1313.2,287.487C1310.92,288.813 1308.1,288.813 1305.82,287.487L1261.9,262.194C1255.39,258.427 1247.34,258.427 1240.83,262.194L1065.52,363.37C1058.97,367.154 1054.98,374.425 1054.98,381.993L1054.98,584.349C1054.98,591.908 1058.97,598.831 1065.52,602.615L1240.83,703.796C1247.33,707.574 1255.39,707.574 1261.9,703.796L1437.21,602.615C1443.74,598.86 1447.76,591.877 1447.75,584.349L1447.75,79.862C1447.74,72.156 1443.57,65.028 1436.86,61.24L1332.52,2.92C1330.88,2.007 1329.07,1.846 1327.25,1.87ZM199.528,254.465C196.188,254.597 193.044,255.183 190.046,256.921L14.735,358.102C8.207,361.852 4.176,368.838 4.198,376.368L4.55,647.942C4.55,651.716 6.498,655.227 9.818,657.073C13.057,659.019 17.121,659.019 20.36,657.073L124.348,597.352C130.935,593.436 135.237,586.629 135.237,579.081L135.237,452.256C135.237,444.687 139.216,437.744 145.779,433.984L190.041,408.34C193.241,406.48 196.881,405.508 200.583,405.528C204.196,405.528 207.907,406.431 211.12,408.34L255.387,433.984C261.922,437.732 265.955,444.723 265.929,452.256L265.929,579.076C265.929,586.624 270.274,593.48 276.817,597.347L380.805,657.073C384.045,659.019 388.108,659.019 391.347,657.073C394.604,655.188 396.617,651.7 396.621,647.937L396.963,376.368C397.005,368.833 392.969,361.837 386.426,358.102L211.12,256.921C208.156,255.183 205.002,254.602 201.638,254.465L199.528,254.465ZM1774.82,256.921C1771.16,256.921 1767.57,257.849 1764.29,259.733L1588.98,360.914C1582.45,364.668 1578.42,371.652 1578.44,379.18L1578.44,581.537C1578.44,589.149 1582.73,596.043 1589.33,599.808L1763.23,698.879C1769.65,702.541 1777.49,702.819 1783.96,699.221L1889.35,640.554C1892.7,638.699 1894.96,635.232 1894.97,631.424C1895.01,627.652 1892.99,624.146 1889.7,622.288L1713.34,521.108C1710.04,519.223 1707.72,515.409 1707.72,511.62L1707.72,448.389C1707.72,444.604 1710.07,441.138 1713.34,439.253L1768.15,407.632C1771.4,405.747 1775.43,405.747 1778.69,407.632L1833.49,439.253C1836.75,441.128 1838.77,444.619 1838.76,448.384L1838.76,498.271C1838.75,502.035 1840.77,505.527 1844.03,507.402C1847.32,509.301 1851.29,509.306 1854.57,507.402L1959.62,446.284C1966.13,442.515 1970.15,435.539 1970.16,428.013L1970.16,379.185C1970.16,371.641 1966.15,364.703 1959.62,360.914L1785.37,259.733C1782.16,257.881 1778.52,256.912 1774.82,256.926L1774.82,256.921ZM1250.66,407.989C1251.58,407.989 1252.65,408.213 1253.47,408.687L1313.55,443.467C1315.18,444.409 1316.36,446.152 1316.36,448.032L1316.36,517.592C1316.36,519.482 1315.19,521.22 1313.55,522.162L1253.47,556.942C1251.84,557.873 1249.83,557.873 1248.2,556.942L1188.13,522.162C1186.5,521.215 1185.32,519.482 1185.32,517.592L1185.32,448.032C1185.32,446.147 1186.5,444.419 1188.13,443.467L1248.2,408.692C1248.94,408.233 1249.8,407.991 1250.66,407.994L1250.66,407.989L1250.66,407.989Z" style="fill:rgb(64,65,55);fill-rule:nonzero;"/>
            </g>
            <g transform="matrix(0.578343,0,0,1.01975,394.535,-371.905)">
                <path d="M726.148,255.866C722.496,255.866 718.883,256.794 715.611,258.679L540.306,359.508C533.748,363.282 529.764,370.567 529.764,378.126L529.764,580.482C529.764,588.05 533.753,594.964 540.306,598.753L715.611,699.929C722.119,703.71 730.182,703.71 736.69,699.929L911.996,598.753C918.52,594.996 922.548,588.011 922.533,580.482L922.533,378.126C922.533,370.557 918.549,363.282 911.996,359.508L736.69,258.679C733.486,256.828 729.849,255.858 726.148,255.866ZM1774.47,436.445C1773.77,436.445 1773,436.445 1772.37,436.797L1738.64,456.47C1737.36,457.18 1736.56,458.523 1736.53,459.985L1736.53,498.627C1736.53,500.082 1737.37,501.415 1738.64,502.143L1772.37,521.464C1773.63,522.196 1774.98,522.196 1776.23,521.464L1809.95,502.138C1811.23,501.424 1812.03,500.087 1812.06,498.627L1812.06,459.98C1812.03,458.521 1811.23,457.183 1809.95,456.47L1776.23,436.792C1775.61,436.426 1775.17,436.45 1774.47,436.45L1774.47,436.445Z" style="fill:rgb(131,205,41);fill-rule:nonzero;"/>
            </g>
            <g transform="matrix(0.578343,0,0,1.01975,-365.767,49.1822)">
                <path d="M2300.04,252.004C2293.96,252.004 2288.05,253.259 2282.83,256.218L2117.36,351.773C2106.65,357.945 2100.14,369.596 2100.14,381.993L2100.14,572.757C2100.14,585.145 2106.65,596.781 2117.36,602.967L2160.57,627.913C2181.57,638.26 2189.31,638.098 2198.86,638.098C2229.95,638.098 2247.69,619.236 2247.69,586.458L2247.69,398.15C2247.69,395.489 2245.39,393.585 2242.78,393.585L2222.05,393.585C2219.39,393.585 2217.13,395.489 2217.13,398.15L2217.13,586.458C2217.13,600.985 2202,615.599 2177.44,603.319L2132.47,576.971C2130.87,576.107 2129.65,574.579 2129.65,572.757L2129.65,381.988C2129.65,380.181 2130.86,378.341 2132.47,377.423L2297.58,282.223C2299.1,281.337 2300.98,281.337 2302.5,282.223L2467.62,377.427C2469.19,378.375 2470.43,380.128 2470.43,381.998L2470.43,572.762C2470.43,574.584 2469.51,576.449 2467.97,577.328L2302.5,672.532C2301.08,673.376 2299.13,673.376 2297.58,672.532L2255.07,647.239C2253.76,646.527 2252.17,646.527 2250.86,647.239C2239.12,653.889 2236.92,654.661 2225.91,658.479C2223.2,659.426 2219.09,660.896 2227.32,665.51L2282.83,698.176C2288.06,701.195 2294,702.772 2300.04,702.746C2306.08,702.784 2312.03,701.208 2317.25,698.181L2482.73,602.972C2493.43,596.746 2499.94,585.15 2499.94,572.762L2499.94,381.993C2499.94,369.6 2493.43,357.97 2482.73,351.783L2317.25,256.228C2312.07,253.264 2306.12,252.009 2300.04,252.009L2300.04,252.004Z" style="fill:rgb(131,205,41);fill-rule:nonzero;"/>
            </g>
            <g transform="matrix(0.578343,0,0,1.01975,-365.767,49.1822)">
                <path d="M2344.3,388.316C2297.19,388.316 2269.12,408.37 2269.12,441.719C2269.12,477.89 2296.98,487.832 2342.2,492.304C2396.3,497.602 2400.51,505.546 2400.51,516.195C2400.51,534.667 2385.79,542.543 2350.98,542.543C2307.25,542.543 2297.64,531.625 2294.42,509.872C2294.04,507.538 2292.24,505.654 2289.85,505.654L2268.42,505.654C2265.78,505.654 2263.5,507.929 2263.5,510.575C2263.5,538.422 2278.65,571.351 2350.98,571.351C2403.34,571.351 2433.54,550.8 2433.54,514.789C2433.54,479.096 2409.15,469.511 2358.36,462.798C2307.04,456.006 2302.15,452.681 2302.15,440.664C2302.15,430.742 2306.3,417.471 2344.3,417.471C2378.26,417.471 2390.81,424.795 2395.95,447.69C2396.4,449.839 2398.29,451.553 2400.51,451.553L2421.95,451.553C2423.27,451.553 2424.55,450.742 2425.46,449.795C2426.36,448.784 2426.99,447.646 2426.87,446.284C2423.55,406.861 2397.26,388.316 2344.3,388.316Z" style="fill:rgb(131,205,41);fill-rule:nonzero;"/>
            </g>
        </g>
    </g>
</svg>
