<?xml version="1.0" encoding="UTF-8" standalone="no"?>
<!DOCTYPE svg PUBLIC "-//W3C//DTD SVG 1.1//EN" "http://www.w3.org/Graphics/SVG/1.1/DTD/svg11.dtd">
<svg width="100%" height="100%" viewBox="0 0 2500 2225" version="1.1" xmlns="http://www.w3.org/2000/svg" xmlns:xlink="http://www.w3.org/1999/xlink" xml:space="preserve" xmlns:serif="http://www.serif.com/" style="fill-rule:evenodd;clip-rule:evenodd;stroke-linejoin:round;stroke-miterlimit:2;">
    <rect id="Artboard1" x="0" y="0" width="2500" height="2224.29" style="fill:none;"/>
    <g id="Artboard11" serif:id="Artboard1">
        <g transform="matrix(1.13301,0,0,1.13301,-168.709,-160.59)">
            <path d="M1963.11,778.034C1939.62,769.978 1915.93,762.515 1892.07,755.652C1896.03,739.573 1899.69,723.422 1903.05,707.207C1956.82,446.202 1921.66,235.937 1801.61,166.722C1686.51,100.338 1498.25,169.553 1308.12,335.006C1289.39,351.346 1271.07,368.157 1253.18,385.423C1241.21,373.943 1229.02,362.685 1216.62,351.655C1017.36,174.729 817.635,100.181 697.709,169.602C582.713,236.172 548.652,433.849 597.059,681.202C601.875,705.697 607.312,730.066 613.366,754.285C585.106,762.312 557.812,770.866 531.7,779.967C298.096,861.409 148.903,989.06 148.903,1121.46C148.903,1258.21 309.053,1395.37 552.383,1478.53C572.113,1485.24 592.008,1491.46 612.048,1497.18C605.538,1523.28 599.758,1549.55 594.715,1575.96C548.564,1819.02 584.608,2012.01 699.3,2078.16C817.762,2146.47 1016.58,2076.26 1210.19,1907.03C1225.49,1893.65 1240.85,1879.46 1256.23,1864.59C1275.6,1883.28 1295.49,1901.43 1315.88,1919.01C1503.41,2080.38 1688.62,2145.55 1803.21,2079.21C1921.56,2010.7 1960.02,1803.37 1910.08,1551.13C1906.27,1531.86 1901.83,1512.18 1896.85,1492.14C1910.81,1488.02 1924.51,1483.77 1937.88,1479.33C2190.84,1395.53 2355.41,1260.04 2355.41,1121.46C2355.41,988.582 2201.41,860.072 1963.11,778.034Z" style="fill:rgb(83,193,222);fill-rule:nonzero;"/>
        </g>
        <g transform="matrix(1.13301,0,0,1.13301,-168.709,-160.59)">
            <path d="M1908.23,1389.86C1896.17,1393.86 1883.79,1397.71 1871.17,1401.45C1843.25,1313.05 1805.55,1219.04 1759.44,1121.93C1803.45,1027.11 1839.68,934.307 1866.83,846.469C1889.4,853.011 1911.31,859.896 1932.42,867.171C2136.61,937.451 2261.16,1041.38 2261.16,1121.46C2261.16,1206.76 2126.64,1317.49 1908.24,1389.86L1908.23,1389.86ZM1817.61,1569.44C1839.69,1680.98 1842.85,1781.82 1828.22,1860.65C1815.07,1931.49 1788.65,1978.72 1755.98,1997.63C1686.44,2037.88 1537.72,1985.56 1377.36,1847.56C1358.97,1831.74 1340.44,1814.85 1321.87,1796.98C1384.05,1728.97 1446.18,1649.91 1506.83,1562.12C1613.5,1552.66 1714.28,1537.18 1805.67,1516.06C1810.16,1534.22 1814.17,1552.03 1817.61,1569.44ZM901.147,1990.68C833.211,2014.67 779.102,2015.36 746.398,1996.5C676.792,1956.36 647.867,1801.39 687.328,1593.54C692.021,1568.97 697.394,1544.54 703.441,1520.28C793.818,1540.27 893.863,1554.65 1000.79,1563.32C1061.83,1649.23 1125.77,1728.19 1190.2,1797.34C1176.51,1810.58 1162.49,1823.49 1148.16,1836.05C1062.55,1910.89 976.759,1963.97 901.157,1990.68L901.147,1990.68ZM582.87,1389.34C475.276,1352.56 386.423,1304.77 325.517,1252.62C270.793,1205.75 243.157,1159.22 243.157,1121.46C243.157,1041.12 362.947,938.633 562.734,868.977C587.81,860.273 613.135,852.304 638.678,845.082C666.294,934.893 702.513,1028.8 746.222,1123.75C701.947,1220.12 665.21,1315.52 637.34,1406.39C619.046,1401.15 600.884,1395.46 582.87,1389.34ZM689.564,663.097C648.092,451.163 675.629,291.296 744.933,251.181C818.758,208.448 981.984,269.383 1154.03,422.141C1165.02,431.906 1176.07,442.13 1187.13,452.706C1123.03,521.541 1059.69,599.907 999.171,685.313C895.396,694.932 796.054,710.381 704.73,731.073C699.104,708.542 694.048,685.873 689.564,663.088L689.564,663.097ZM1641.35,898.117C1619.78,860.857 1597.41,824.066 1574.25,787.77C1644.66,796.656 1712.11,808.472 1775.45,822.934C1756.43,883.879 1732.73,947.607 1704.83,1012.94C1684.43,974.244 1663.27,935.964 1641.35,898.117ZM1253.21,520.066C1296.69,567.164 1340.23,619.759 1383.06,676.817C1296.18,672.712 1209.15,672.692 1122.27,676.759C1165.14,620.228 1209.05,567.711 1253.21,520.066ZM862.585,898.761C840.939,936.307 820.172,974.353 800.302,1012.87C772.852,947.763 749.367,883.752 730.188,821.938C793.144,807.847 860.28,796.334 930.228,787.594C906.813,824.115 884.259,861.181 862.585,898.761ZM932.24,1462.05C859.977,1453.98 791.826,1443.06 728.889,1429.35C748.371,1366.45 772.373,1301.06 800.409,1234.56C820.363,1273.1 841.221,1311.17 862.965,1348.73C885.153,1387.05 908.251,1424.83 932.24,1462.05ZM1255.82,1729.51C1211.14,1681.3 1166.59,1627.98 1123.06,1570.63C1165.31,1572.29 1208.38,1573.13 1252.16,1573.13C1297.14,1573.13 1341.6,1572.12 1385.36,1570.17C1342.39,1628.57 1299,1681.96 1255.82,1729.51ZM1705.72,1231.17C1735.21,1298.39 1760.08,1363.43 1779.82,1425.27C1715.84,1439.87 1646.77,1451.63 1573.99,1460.36C1597.31,1423.38 1619.9,1385.95 1641.73,1348.08C1663.93,1309.59 1685.26,1270.61 1705.72,1231.17ZM1560.08,1300.99C1526.65,1359.05 1491.35,1416.02 1454.22,1471.78C1388.75,1476.46 1321.1,1478.87 1252.16,1478.87C1183.5,1478.87 1116.7,1476.74 1052.38,1472.57C1014.29,1416.93 978.32,1359.87 944.544,1301.51C910.926,1243.46 879.524,1184.15 850.407,1123.72C879.45,1063.27 910.757,1003.94 944.261,945.839L944.261,945.859C977.754,887.75 1013.44,830.934 1051.25,775.534C1116.87,770.573 1184.15,767.976 1252.17,767.976C1320.49,767.976 1387.86,770.593 1453.46,775.593C1490.88,830.907 1526.34,887.526 1559.77,945.341C1593.39,1003.31 1625.12,1062.35 1654.89,1122.38C1625.42,1183.03 1593.8,1242.6 1560.09,1300.99L1560.08,1300.99ZM1754.53,248.378C1828.41,290.994 1857.15,462.832 1810.73,688.184C1807.69,702.864 1804.38,717.489 1800.81,732.05C1709.27,710.927 1609.86,695.205 1505.78,685.44C1445.15,599.106 1382.33,520.603 1319.27,452.657C1335.79,436.725 1352.71,421.207 1370.01,406.116C1532.91,264.344 1685.16,208.37 1754.53,248.378Z" style="fill:white;fill-rule:nonzero;"/>
        </g>
        <g transform="matrix(1.13301,0,0,1.13301,-168.709,-160.59)">
            <path d="M1252.16,924.424C1360.98,924.424 1449.19,1012.64 1449.19,1121.46C1449.19,1230.28 1360.98,1318.5 1252.16,1318.5C1143.34,1318.5 1055.12,1230.28 1055.12,1121.46C1055.12,1012.64 1143.34,924.424 1252.16,924.424" style="fill:rgb(83,193,222);fill-rule:nonzero;"/>
        </g>
    </g>
</svg>
