<?xml version="1.0" encoding="UTF-8" standalone="no"?>
<!DOCTYPE svg PUBLIC "-//W3C//DTD SVG 1.1//EN" "http://www.w3.org/Graphics/SVG/1.1/DTD/svg11.dtd">
<svg width="100%" height="100%" viewBox="0 0 120 36" version="1.1" xmlns="http://www.w3.org/2000/svg" xmlns:xlink="http://www.w3.org/1999/xlink" xml:space="preserve" xmlns:serif="http://www.serif.com/" style="fill-rule:evenodd;clip-rule:evenodd;stroke-linejoin:round;stroke-miterlimit:2;">
    <rect id="Artboard1" x="0" y="0" width="120" height="35.638" style="fill:none;"/>
    <g id="Artboard11" serif:id="Artboard1">
        <g transform="matrix(1.11155,0,0,1.11155,-6.66932,-15.4966)">
            <path d="M84.546,27.776C84.574,27.755 84.604,27.736 84.635,27.718C84.775,27.625 84.938,27.574 85.106,27.571C85.274,27.571 85.446,27.641 85.619,27.771C85.871,27.966 86.015,28.27 86.007,28.588L86.007,28.703C85.993,28.837 85.972,28.969 85.944,29.101C85.865,29.476 85.767,29.846 85.651,30.211L85.17,31.7C84.64,33.642 84.353,35.19 84.31,36.34L84.31,36.58C84.31,37.25 84.387,37.764 84.54,38.12C84.572,38.198 84.61,38.266 84.655,38.324C84.787,38.501 84.975,38.597 85.221,38.612L85.284,38.612C85.508,38.612 85.737,38.552 85.97,38.429C86.154,38.331 86.34,38.197 86.53,38.026C86.677,37.886 86.85,37.694 87.054,37.45L87.484,36.874C87.826,36.414 88.179,35.868 88.542,35.24L89.527,33.543L89.569,33.48L89.737,32.967C90.177,31.767 90.781,30.725 91.549,29.845C92.043,29.287 92.577,28.828 93.152,28.467C93.573,28.204 94.023,27.991 94.493,27.833C95.017,27.673 95.509,27.593 95.97,27.593C96.551,27.59 97.125,27.723 97.646,27.981C98.652,28.484 99.221,29.326 99.354,30.506L99.354,30.658C99.349,30.862 99.274,31.028 99.134,31.156C99.068,31.222 98.989,31.273 98.898,31.308C98.785,31.348 98.667,31.368 98.547,31.366C98.297,31.366 98.079,31.293 97.897,31.146C97.697,30.991 97.571,30.759 97.551,30.507C97.501,30.017 97.241,29.69 96.765,29.522C96.535,29.438 96.283,29.396 96.011,29.396C95.831,29.396 95.627,29.416 95.404,29.459C94.95,29.555 94.514,29.737 94.104,30.004C93.639,30.301 93.194,30.702 92.774,31.209C92.122,31.983 91.628,32.876 91.318,33.839C91.118,34.481 91.004,35.093 91.004,35.672C91.003,36.057 91.053,36.441 91.151,36.814C91.199,37 91.265,37.181 91.35,37.354C91.654,37.95 92.17,38.336 92.9,38.511C93.172,38.581 93.455,38.616 93.75,38.616C94.346,38.611 94.933,38.471 95.468,38.208L95.992,37.93C97.487,37.066 98.838,35.605 100.046,33.546C100.059,33.519 100.077,33.494 100.098,33.472C100.105,33.436 100.115,33.401 100.129,33.367C100.681,31.684 101.554,30.297 102.749,29.207C103.093,28.892 103.442,28.623 103.797,28.4C104.643,27.87 105.52,27.604 106.427,27.604L106.887,27.624C107.662,27.67 108.387,28.025 108.898,28.609C109.395,29.149 109.675,29.855 109.684,30.589L109.684,30.736C109.684,31.776 109.296,32.782 108.521,33.753C108.059,34.337 107.531,34.798 106.939,35.136C106.277,35.51 105.533,35.73 104.709,35.796L104.185,35.816C103.312,35.816 102.435,35.648 101.555,35.313L101.545,35.513L101.535,35.796C101.535,36.448 101.649,36.992 101.875,37.426C102.003,37.667 102.175,37.883 102.383,38.06C102.767,38.367 103.243,38.552 103.808,38.615L104.206,38.625C104.594,38.627 104.979,38.567 105.348,38.447C105.769,38.317 106.173,38.14 106.553,37.918C107.165,37.568 107.766,37.09 108.355,36.488C109.151,35.685 109.881,34.711 110.545,33.565L110.608,33.481C111.656,31.601 112.19,29.571 112.211,27.384L112.211,27.269C112.211,24.936 111.593,22.974 110.357,21.381C109.114,19.796 107.329,18.818 105.004,18.448C104.191,18.346 103.372,18.297 102.553,18.301L100.081,18.385L95.126,18.795C92.814,19.06 90.014,19.567 86.724,20.315L78.416,22.325L73.576,23.278L73.534,23.378L73.188,24.148L72.434,25.73L67.834,34.31C67.872,35.485 68.032,36.468 68.316,37.26L68.41,37.506C68.59,37.911 68.798,38.216 69.028,38.418C69.105,38.481 69.188,38.53 69.278,38.564C69.376,38.606 69.466,38.627 69.55,38.627L69.655,38.617C69.811,38.592 69.955,38.542 70.115,38.465C70.348,38.345 70.575,38.161 70.795,37.915L71.435,37.065L71.613,36.782C71.899,36.342 72.21,35.808 72.545,35.179L73.445,33.545C73.474,33.495 73.509,33.449 73.55,33.409C74.04,32.047 74.804,30.829 75.844,29.753C76.347,29.233 76.864,28.806 77.394,28.475C78.331,27.888 79.314,27.595 80.338,27.595L80.411,27.595C81.854,27.608 82.905,28.277 83.564,29.601L83.658,29.805L84.118,28.465L84.244,28.182C84.329,28.002 84.432,27.864 84.544,27.768L84.546,27.776ZM78.857,38.2C79.449,37.87 80.017,37.343 80.559,36.623C80.999,36.036 81.432,35.317 81.859,34.465L82.341,33.365L82.751,32.37C82.877,32.077 83.001,31.73 83.128,31.333L82.981,31.353C82.847,31.351 82.715,31.323 82.593,31.269C82.358,31.174 82.177,30.977 82.101,30.735C81.863,30.058 81.437,29.635 80.823,29.467C80.655,29.417 80.46,29.394 80.236,29.394C79.838,29.394 79.412,29.492 78.958,29.687C78.703,29.797 78.458,29.925 78.218,30.075C77.295,30.658 76.501,31.552 75.835,32.757C75.563,33.232 75.345,33.737 75.185,34.277C74.982,34.912 74.875,35.507 74.86,36.057L74.86,36.203C74.86,36.785 74.972,37.263 75.195,37.633C75.483,38.111 75.955,38.416 76.609,38.55C76.83,38.592 77.054,38.613 77.279,38.613C77.832,38.61 78.376,38.464 78.856,38.189L78.857,38.2ZM89.249,37.603L89.129,37.776C88.414,38.801 87.667,39.532 86.887,39.971C86.706,40.075 86.516,40.164 86.321,40.238C85.986,40.364 85.658,40.428 85.336,40.428C85.036,40.428 84.726,40.372 84.404,40.26C83.754,40.03 83.276,39.614 82.969,39.013C82.697,38.468 82.543,37.823 82.509,37.075L82.509,36.875L82.309,37.189C81.629,38.175 80.909,38.943 80.151,39.494L79.706,39.777C78.966,40.205 78.125,40.429 77.27,40.427C77.039,40.424 76.808,40.407 76.579,40.375C75.169,40.193 74.166,39.54 73.572,38.415C73.447,38.181 73.346,37.936 73.268,37.682L73.1,37.932L72.9,38.215C72.31,39.075 71.69,39.685 71.045,40.043C70.585,40.298 70.109,40.425 69.62,40.425L69.536,40.425C68.272,40.383 67.332,39.611 66.718,38.11C66.528,37.62 66.376,37.094 66.258,36.528L66.068,36.758C65.438,37.526 64.768,38.188 64.058,38.748C63.692,39.035 63.325,39.285 62.958,39.498C61.895,40.116 60.828,40.425 59.752,40.425C59.515,40.425 59.232,40.4 58.902,40.351C57.202,40.086 56.102,39.251 55.572,37.816C55.418,37.411 55.322,36.981 55.279,36.526L55.479,34.796L53.709,34.209L53.651,34.387C53.516,34.809 53.354,35.232 53.164,35.655L52,37.692C51.32,38.652 50.567,39.369 49.742,39.84L49.442,39.997C48.848,40.283 48.234,40.427 47.598,40.427C47.305,40.427 46.976,40.392 46.613,40.322C45.586,40.106 44.776,39.62 44.183,38.866C43.846,38.451 43.593,37.974 43.439,37.462C43.423,37.478 43.409,37.495 43.397,37.514L43.271,37.714C42.709,38.569 42.179,39.204 41.679,39.621C41.484,39.782 41.276,39.926 41.056,40.051C40.602,40.301 40.143,40.428 39.678,40.428C39.524,40.428 39.35,40.41 39.154,40.376C38.05,40.176 37.429,39.402 37.289,38.082C37.269,37.892 37.259,37.694 37.259,37.485C37.259,36.612 37.423,35.568 37.751,34.353L38.275,32.498L38.715,30.675C38.757,30.415 38.778,30.155 38.778,29.889L38.778,29.742C38.778,29.525 38.758,29.407 38.715,29.386C38.687,29.372 38.659,29.366 38.631,29.366C38.568,29.366 38.467,29.411 38.327,29.502L38.301,29.522L37.919,29.857C37.556,30.157 37.139,30.615 36.672,31.229C35.925,32.186 35.102,33.429 34.2,34.959L33.1,36.909L31.738,39.423C31.633,39.611 31.514,39.793 31.382,39.968C31.235,40.148 31.078,40.275 30.912,40.35C30.795,40.402 30.672,40.43 30.545,40.43C30.456,40.43 30.367,40.416 30.283,40.388C29.948,40.304 29.683,40.081 29.518,39.718C29.392,39.453 29.298,39.111 29.235,38.692C29.151,38.105 29.109,37.456 29.109,36.742L29.109,36.669L28.909,36.821L28.553,37.046C28.075,37.319 27.573,37.49 27.043,37.559L27.033,37.653C26.853,39.028 26.376,40.295 25.598,41.456C24.808,42.618 23.791,43.563 22.544,44.29C22.204,44.49 21.846,44.673 21.47,44.84C19.73,45.615 17.85,46.003 15.823,46.003C13.029,45.975 10.763,45.347 9.023,44.117C7.01,42.69 6,40.793 6,38.425L6,38.1C6.07,36.487 6.545,34.957 7.425,33.512C7.963,32.612 8.655,31.912 9.505,31.38C10.043,31.048 10.622,30.789 11.228,30.61C12.068,30.361 12.94,30.234 13.816,30.233C14.71,30.233 15.632,30.397 16.582,30.726C17.532,31.055 18.604,31.62 19.798,32.423L22.908,34.508C23.681,35.013 24.394,35.373 25.045,35.588L25.275,35.662C25.128,34.216 24.605,32.98 23.705,31.952C22.805,30.912 21.655,30.15 20.258,29.668L18.918,29.208C17.688,28.775 16.774,28.348 16.173,27.93C14.553,26.834 13.653,25.328 13.47,23.415L13.44,22.849C13.44,21.005 14.187,19.462 15.682,18.219C15.939,18.005 16.21,17.809 16.494,17.632C17.644,16.912 18.96,16.552 20.438,16.552C21.774,16.537 23.08,16.956 24.157,17.746C25.227,18.526 25.857,19.62 26.017,21.03L26.033,21.16L26.063,21.736C26.063,22.806 25.787,23.72 25.235,24.481C24.845,25.007 24.485,25.351 24.155,25.513C24.026,25.582 23.882,25.62 23.736,25.623L23.486,25.593L23.339,25.729L23.182,25.881L21.527,27.426C21.478,27.453 21.427,27.478 21.375,27.499C21.143,27.584 20.981,27.529 20.888,27.331C20.776,27.205 20.788,27.048 20.918,26.861L20.928,26.851C20.956,26.809 20.994,26.764 21.043,26.715L22.866,24.997C22.845,24.904 22.831,24.809 22.824,24.714C22.824,24.477 22.918,24.278 23.107,24.117C23.903,23.405 24.301,22.584 24.301,21.655C24.301,20.733 23.951,19.958 23.253,19.329C22.555,18.7 21.601,18.379 20.393,18.365C19.236,18.365 18.238,18.632 17.397,19.165C17.139,19.329 16.897,19.516 16.674,19.725C15.704,20.633 15.218,21.722 15.218,22.995C15.216,23.536 15.332,24.07 15.558,24.561C15.77,25.008 16.055,25.417 16.401,25.771C17.183,26.588 18.401,27.231 20.026,27.699C20.472,27.829 20.898,27.975 21.304,28.139L22.137,28.511C23.423,29.156 24.467,30.003 25.275,31.051C26.181,32.221 26.75,33.514 26.983,34.927L27.077,35.734L27.197,35.692C27.33,35.644 27.461,35.584 27.59,35.514C28.212,35.17 28.79,34.559 29.33,33.681L29.35,33.461L29.55,31.721C30.01,28.278 30.65,25.281 31.467,22.731L31.97,21.161L32.66,19.527C33.23,18.349 33.906,17.507 34.692,17.002L34.797,16.939C35.209,16.689 35.635,16.562 36.075,16.562L36.275,16.582C36.841,16.638 37.277,16.882 37.575,17.315C37.847,17.705 37.985,18.192 37.985,18.771L37.975,19.181C37.939,19.516 37.883,19.848 37.807,20.176L37.545,21.098C37.07,22.634 36.197,24.656 34.925,27.164L31.049,34.288L31.007,34.978L30.923,36.874L30.923,37.136L32.851,33.7L35.301,30.033L36.401,28.765C36.649,28.513 36.923,28.289 37.218,28.095C37.403,27.975 37.588,27.878 37.773,27.802C38.059,27.669 38.356,27.602 38.673,27.602C38.841,27.602 39.001,27.622 39.155,27.665C39.645,27.785 40.01,28.053 40.255,28.472C40.463,28.818 40.567,29.252 40.569,29.776L40.569,29.876C40.569,30.113 40.544,30.358 40.496,30.609L39.312,35.627L39.144,36.413C39.073,36.797 39.035,37.186 39.029,37.576C39.029,37.766 39.036,37.901 39.049,37.986C39.071,38.234 39.179,38.406 39.379,38.499C39.444,38.528 39.513,38.549 39.583,38.562L39.96,38.542C40.027,38.53 40.092,38.511 40.154,38.484C40.181,38.474 40.208,38.462 40.233,38.447C40.553,38.251 40.889,37.93 41.239,37.483L41.983,36.289L42.758,34.927L43.491,33.627C43.624,33.152 43.798,32.674 44.015,32.192C44.588,30.922 45.377,29.87 46.383,29.039C46.609,28.854 46.847,28.685 47.095,28.531C47.825,28.071 48.597,27.787 49.41,27.677L49.82,27.614L50.218,27.594C50.871,27.598 51.513,27.756 52.093,28.055C53.26,28.63 53.913,29.625 54.047,31.041L54.073,31.617L54.053,31.994L54.023,32.414L54.395,32.54L55.635,32.964L55.782,33.011C56.327,31.501 57.152,30.241 58.254,29.229C58.577,28.932 58.926,28.664 59.296,28.428C60.15,27.894 61.032,27.628 61.941,27.628L62.391,27.648C63.166,27.694 63.891,28.049 64.402,28.633C64.899,29.173 65.179,29.879 65.188,30.613L65.188,30.76C65.188,31.8 64.8,32.806 64.025,33.777C63.597,34.338 63.061,34.808 62.449,35.16C61.789,35.534 61.049,35.754 60.223,35.82L59.699,35.84C58.948,35.837 58.203,35.717 57.489,35.484L57.416,35.464L57.29,35.422L57.07,35.338L57.07,35.348C57.059,35.41 57.052,35.473 57.049,35.536L57.049,35.819C57.049,36.471 57.163,37.015 57.389,37.449C57.517,37.69 57.689,37.906 57.897,38.083C58.281,38.39 58.757,38.575 59.322,38.638L59.71,38.648C60.115,38.648 60.5,38.588 60.862,38.47C61.268,38.347 61.67,38.17 62.067,37.94C62.679,37.59 63.28,37.112 63.869,36.51C64.602,35.77 65.301,34.848 65.964,33.744L65.964,33.356C65.999,32.12 66.177,30.499 66.498,28.496C66.784,26.786 67.13,25.238 67.535,23.856L67.075,23.856C65.105,23.856 63.492,23.654 62.235,23.248C60.817,22.801 59.557,22.11 58.453,21.174C57.231,20.14 56.396,18.978 55.949,17.684C55.907,17.579 55.886,17.478 55.886,17.38C55.884,17.245 55.925,17.114 56.001,17.003C56.015,16.975 56.031,16.951 56.053,16.93L55.383,15.42L54.995,14.54C54.985,14.486 54.98,14.435 54.979,14.388C54.973,14.263 54.993,14.165 55.042,14.095C55.091,14.025 55.175,13.975 55.288,13.965C55.448,13.902 55.595,13.965 55.728,14.155L55.738,14.165C55.766,14.207 55.794,14.259 55.822,14.322L56.838,16.595C56.961,16.598 57.082,16.627 57.194,16.679C57.417,16.769 57.582,16.949 57.686,17.213L57.696,17.265L58.031,17.915C58.381,18.523 58.831,19.092 59.414,19.623C61.167,21.257 63.598,22.073 66.704,22.073L66.778,22.073L67.978,22.047L68.14,22.042C68.608,20.799 69.14,19.72 69.732,18.805C70.088,18.245 70.448,17.803 70.812,17.475C70.994,17.307 71.177,17.162 71.362,17.04C71.638,16.856 71.945,16.723 72.268,16.647C72.449,16.599 72.636,16.575 72.823,16.574C73.347,16.574 73.783,16.766 74.123,17.15C74.513,17.583 74.71,18.128 74.71,18.784L74.71,18.826L74.7,19.046C74.644,19.758 74.5,20.523 74.24,21.34L74.88,21.225L74.932,21.215L78.872,20.365L82.822,19.391C89.855,17.638 96.032,16.699 101.354,16.573L102.119,16.563C105.115,16.563 107.437,17.048 109.086,18.019C110.896,19.067 112.218,20.614 113.056,22.659C113.363,23.395 113.592,24.161 113.742,24.959C113.885,25.722 113.957,26.513 113.957,27.332C113.957,27.772 113.937,28.216 113.894,28.662C113.692,30.729 113.087,32.657 112.082,34.445C112.054,34.495 112.026,34.539 111.998,34.581C110.958,36.334 109.774,37.727 108.448,38.761C108.098,39.038 107.728,39.289 107.343,39.515C106.283,40.13 105.221,40.437 104.143,40.437C103.913,40.437 103.626,40.412 103.283,40.363C101.583,40.098 100.483,39.263 99.953,37.828C99.855,37.574 99.781,37.31 99.733,37.042L99.539,37.262C98.709,38.186 97.824,38.922 96.883,39.472C96.555,39.672 96.219,39.829 95.877,39.975C95.144,40.282 94.41,40.435 93.677,40.435C93.384,40.435 93.077,40.407 92.755,40.351C91.603,40.163 90.709,39.641 90.073,38.791C89.753,38.371 89.518,37.894 89.371,37.356L89.198,37.613L89.249,37.603ZM102.716,33.826C103.187,33.958 103.673,34.025 104.162,34.025L104.602,34.015C105.13,33.963 105.602,33.821 106.022,33.591C106.556,33.298 107.002,32.859 107.358,32.276C107.574,31.934 107.725,31.596 107.808,31.26C107.858,31.085 107.882,30.9 107.882,30.705C107.883,30.523 107.851,30.342 107.788,30.171C107.592,29.681 107.191,29.427 106.583,29.406L106.51,29.406C106.05,29.406 105.57,29.526 105.075,29.762C104.895,29.849 104.721,29.945 104.551,30.05C103.755,30.555 103.078,31.283 102.519,32.234C102.279,32.65 102.073,33.085 101.901,33.533C102.166,33.65 102.439,33.748 102.718,33.826L102.716,33.826ZM71.215,21.784L72.242,21.654C72.283,21.55 72.322,21.446 72.357,21.34L72.557,20.722C72.641,20.45 72.7,20.237 72.735,20.082C72.858,19.662 72.932,19.23 72.955,18.793C72.955,18.569 72.868,18.458 72.693,18.458L72.525,18.478C72.418,18.506 72.305,18.564 72.19,18.651C71.964,18.817 71.72,19.091 71.457,19.473C71.143,19.933 70.847,20.458 70.557,21.043C70.424,21.315 70.295,21.598 70.169,21.893L71.196,21.793L71.215,21.784ZM58.27,33.826C58.748,33.959 59.228,34.026 59.71,34.026L60.15,34.016C60.684,33.966 61.162,33.826 61.585,33.592C62.117,33.3 62.561,32.862 62.915,32.277C63.139,31.927 63.285,31.589 63.355,31.261C63.411,31.093 63.439,30.908 63.439,30.706C63.44,30.524 63.408,30.343 63.345,30.172C63.149,29.682 62.745,29.428 62.13,29.407L62.067,29.407C61.607,29.407 61.127,29.527 60.632,29.763C60.452,29.85 60.278,29.946 60.108,30.051C59.312,30.556 58.635,31.284 58.076,32.235C57.826,32.661 57.619,33.095 57.458,33.535C57.595,33.597 57.735,33.653 57.877,33.703C58.007,33.749 58.138,33.791 58.27,33.829L58.27,33.826ZM69.448,23.868C68.878,25.608 68.448,27.573 68.154,29.761L68.149,29.803L68.102,30.149C69.22,28.109 70.117,26.379 70.795,24.953C71.016,24.499 71.229,24.042 71.434,23.581L70.638,23.665L69.486,23.759L69.449,23.859L69.448,23.868ZM49.748,30.955C49.818,30.981 49.896,31.005 49.978,31.028L52.084,31.74L52.284,31.813L52.284,31.7C52.284,30.45 51.794,29.703 50.817,29.458C50.58,29.402 50.377,29.374 50.209,29.374C49.875,29.374 49.592,29.459 49.359,29.631C49.237,29.724 49.131,29.835 49.045,29.961C48.869,30.393 49.1,30.721 49.735,30.946L49.748,30.955ZM55.6,15.3L55.7,15.53L56.16,16.583C56.182,16.559 56.206,16.538 56.233,16.52C56.301,16.475 56.381,16.449 56.463,16.447L55.457,14.205C55.373,14.185 55.31,14.185 55.267,14.205C55.224,14.225 55.194,14.262 55.177,14.32C55.175,14.326 55.173,14.333 55.172,14.34L55.596,15.3L55.6,15.3ZM55.563,14.184L56.413,16.101L56.539,16.028L55.629,14.163L55.566,14.183L55.563,14.184ZM35.627,18.55C35.279,18.813 34.92,19.267 34.547,19.912C33.695,21.442 32.917,23.799 32.211,26.984L31.791,29.079L31.718,29.477C32.898,27.312 33.852,25.423 34.578,23.809L35.584,21.515C35.919,20.615 36.118,19.807 36.181,19.095L36.211,18.739C36.212,18.644 36.202,18.549 36.18,18.456L36.17,18.414L36.14,18.362L36.025,18.362L36.005,18.382L35.942,18.412L35.858,18.422L35.838,18.422L35.838,18.412C35.765,18.452 35.695,18.498 35.628,18.548L35.627,18.55ZM22.835,26.05C22.835,25.89 22.741,25.89 22.552,26.05C22.432,26.164 22.316,26.283 22.206,26.406C22.099,26.494 21.998,26.589 21.902,26.689C21.742,26.857 21.662,26.959 21.662,26.993L21.672,27.066C21.699,27.076 21.727,27.084 21.756,27.087C21.763,27.087 21.946,26.919 22.301,26.584C22.656,26.249 22.835,26.071 22.835,26.05ZM22.835,25.39C22.835,25.25 22.542,25.442 21.955,25.966C21.368,26.496 21.075,26.783 21.075,26.826C21.075,26.889 21.11,26.92 21.18,26.92C21.187,26.92 21.74,26.42 22.835,25.39ZM21.535,27.192C21.535,27.136 21.507,27.108 21.451,27.108C21.388,27.108 21.331,27.138 21.283,27.202C21.171,27.195 21.091,27.209 21.043,27.244C21.023,27.258 21.013,27.272 21.013,27.286C21.013,27.328 21.041,27.359 21.097,27.38L21.287,27.38C21.455,27.317 21.537,27.254 21.537,27.19L21.535,27.192ZM8.145,40.392C8.5,41.272 9.108,42.017 9.968,42.622C11.428,43.662 13.428,44.182 15.971,44.182C17.969,44.182 19.651,43.826 21.021,43.112C21.157,43.042 21.291,42.967 21.419,42.892C22.591,42.209 23.516,41.339 24.195,40.282C24.744,39.434 25.102,38.476 25.243,37.475C24.783,37.355 24.356,37.213 23.965,37.045C23.085,36.689 21.992,36.067 20.685,35.18L18.537,33.724C17.629,33.144 16.802,32.711 16.054,32.424C15.3,32.144 14.559,32.004 13.834,32.004L13.52,32.004C12.363,32.064 11.366,32.36 10.53,32.889C10.03,33.204 9.59,33.604 9.205,34.089C8.248,35.283 7.77,36.694 7.77,38.321C7.77,39.077 7.896,39.765 8.147,40.385L8.145,40.392ZM45.36,37.4C45.63,37.928 46.109,38.319 46.68,38.479C46.966,38.563 47.246,38.605 47.518,38.605C47.981,38.605 48.438,38.481 48.885,38.233C49.194,38.057 49.481,37.844 49.739,37.599L50.053,37.285L51.101,35.765C51.213,35.565 51.301,35.36 51.394,35.178C51.484,34.996 51.562,34.832 51.624,34.685C51.756,34.344 51.875,33.998 51.98,33.648L47.737,32.255C47.277,31.975 46.972,31.591 46.827,31.103C46.767,31.173 46.707,31.245 46.649,31.318C46.049,32.066 45.601,32.928 45.309,33.9C45.114,34.55 45.016,35.17 45.016,35.765C45.016,36.032 45.037,36.298 45.079,36.561C45.13,36.853 45.226,37.136 45.362,37.399L45.36,37.4Z" style="fill:rgb(241,99,74);fill-rule:nonzero;"/>
        </g>
    </g>
</svg>
