<?xml version="1.0" encoding="UTF-8" standalone="no"?>
<!DOCTYPE svg PUBLIC "-//W3C//DTD SVG 1.1//EN" "http://www.w3.org/Graphics/SVG/1.1/DTD/svg11.dtd">
<svg width="100%" height="100%" viewBox="0 0 2500 562" version="1.1" xmlns="http://www.w3.org/2000/svg" xmlns:xlink="http://www.w3.org/1999/xlink" xml:space="preserve" xmlns:serif="http://www.serif.com/" style="fill-rule:evenodd;clip-rule:evenodd;stroke-linejoin:round;stroke-miterlimit:2;">
    <g id="Artboard1" transform="matrix(1,0,0,1,0,-0.0295621)">
        <rect x="0" y="0.03" width="2500" height="561.779" style="fill:none;"/>
        <clipPath id="_clip1">
            <rect x="0" y="0.03" width="2500" height="561.779"/>
        </clipPath>
        <g clip-path="url(#_clip1)">
            <g transform="matrix(1.04851,0,0,1.04851,-60.6338,-27.3223)">
                <path d="M1999.13,186.764C2008.24,202.489 2011.22,220.379 2012.21,240.492L2013.5,267.3L2013.5,454.757L2014.82,481.593C2017.47,525.42 2049.79,557.825 2093.95,560.582L2120.65,561.904L2120.65,267.3L2121.97,240.492C2123.07,220.604 2126.02,202.376 2135.28,186.539C2154.41,153.58 2189.75,133.23 2227.87,133.23C2266.12,133.23 2301.57,153.728 2320.65,186.877C2329.76,202.601 2332.61,220.829 2333.7,240.492L2335.03,267.216L2335.03,454.757L2336.35,481.593C2339.1,525.645 2371.17,558.05 2415.48,560.582L2442.17,561.904L2442.17,240.492C2442.17,122.936 2345.46,26.189 2227.91,26.143C2166.4,26.078 2107.76,52.559 2067.14,98.746C2026.51,52.579 1967.88,26.094 1906.38,26.115C1861.88,26.115 1820.59,39.617 1786.38,62.937C1765.51,39.645 1718.81,26.115 1692,26.115L1692,561.904L1718.81,560.582C1763.65,557.628 1796.06,526.095 1797.8,481.593L1799.24,454.757L1799.24,267.3L1800.56,240.492C1801.68,220.267 1804.5,202.489 1813.64,186.652C1832.82,153.656 1868.21,133.281 1906.38,133.261C1944.58,133.27 1980,153.7 1999.13,186.764ZM164.975,560.61L191.783,561.904L593.618,561.904L592.296,535.181C588.667,491.129 557.471,458.949 513.279,456.079L486.471,454.757L245.399,454.757L566.81,133.233L565.488,106.538C563.407,62.036 530.888,29.884 486.471,27.437L459.664,26.227L57.829,26.115L59.151,52.922C62.667,96.552 94.313,129.407 138.139,131.939L164.975,133.261L406.048,133.261L84.636,454.785L85.959,481.593C88.603,525.757 120.474,557.741 164.975,560.582L164.975,560.61ZM1586.83,104.541C1637.06,154.76 1665.31,222.952 1665.31,293.981C1665.31,365.01 1637.06,433.202 1586.83,483.422C1482.85,587.311 1311.84,587.311 1207.86,483.422C1103.25,378.807 1103.25,209.156 1207.86,104.541C1258.05,54.338 1326.19,26.098 1397.17,26.087C1468.28,26.037 1536.55,54.291 1586.83,104.569L1586.83,104.541ZM1511.02,180.407C1573.34,242.781 1573.34,345.379 1511.02,407.752C1448.64,470.079 1346.05,470.079 1283.67,407.752C1221.35,345.379 1221.35,242.781 1283.67,180.407C1346.05,118.08 1448.64,118.08 1511.02,180.407ZM834.916,26.087C905.904,26.105 974.05,54.356 1024.23,104.569C1128.87,209.156 1128.87,378.835 1024.23,483.422C920.257,587.311 749.238,587.311 645.264,483.422C540.65,378.807 540.65,209.156 645.264,104.541C695.449,54.338 763.594,26.098 834.578,26.087L834.916,26.087ZM948.42,180.351C1010.76,242.727 1010.76,345.348 948.42,407.724C886.046,470.051 783.448,470.051 721.074,407.724C658.748,345.351 658.748,242.752 721.074,180.379C783.448,118.052 886.046,118.052 948.42,180.379L948.42,180.351Z" style="fill:rgb(45,140,255);"/>
            </g>
        </g>
    </g>
</svg>
